:FULLY-SPECIFIED
:FORCE-ALL-JOINTS-BE-3DOF
:DEGREES
227
root 8.93032 16.403 -4.95507 9.28618 -2.00019 -2.46325
lfemur -41.4871 8.78006 -21.6204
ltibia 47.4679 -0 0
lfoot -8.56621 7.18715 -0.0739982
ltoes -0.8507 0 0
rfemur 4.05762 2.54205 23.3693
rtibia 25.1664 -0 0
rfoot -0.778537 3.91402 0.184199
rtoes -15.1643 0 0
lowerback -6.15778 1.82982 0.179486
upperback -2.51337 2.40168 2.27878
thorax 0.771792 1.20776 2.41318
lowerneck -16.9755 -6.34734 -14.4445
upperneck 15.6678 -8.09121 15.2953
head 8.97032 -3.23684 6.63624
lclavicle -3.12497e-14 -7.16941e-17 8.77403e-31
lhumerus -46.9413 -6.7249 90.5489
lradius 23.239 -0 0
lwrist 0.789609 0 0
lhand -8.90357 -22.629 0.047474
lfingers 7.12502 -0 0
lthumb 17.0359 6.59489 0.0343381
rclavicle -3.12497e-14 -7.16941e-17 8.77403e-31
rhumerus -44.5889 8.81573 -84.6194
rradius 43.2733 -0 0
rwrist -22.8526 0 0
rhand -30.6849 -24.6569 0.0013524
rfingers 7.12502 -0 0
rthumb -3.9788 -54.5991 0.00127949
228
root 8.94937 16.3972 -4.80243 9.32763 -2.17841 -2.47554
lfemur -41.6939 8.80205 -21.6742
ltibia 47.1922 -0 0
lfoot -8.46842 7.07511 -0.0715114
ltoes -0.803002 0 0
rfemur 4.5628 2.52163 23.2743
rtibia 25.0914 -0 0
rfoot -0.344802 3.97692 0.177989
rtoes -15.1871 0 0
lowerback -6.2082 1.84614 0.173383
upperback -2.52504 2.42321 2.25492
thorax 0.787667 1.21847 2.39471
lowerneck -17.065 -6.33115 -14.4113
upperneck 15.7356 -8.06867 15.2744
head 9.00273 -3.22213 6.62711
lclavicle -3.15563e-14 3.51946e-16 8.47929e-31
lhumerus -46.8965 -6.62232 90.4164
lradius 23.0168 -0 0
lwrist 0.405044 0 0
lhand -8.74905 -22.5835 0.0458784
lfingers 7.12502 -0 0
lthumb 17.1847 6.62905 0.0331842
rclavicle -3.15563e-14 3.51946e-16 8.47929e-31
rhumerus -44.6876 8.78496 -84.769
rradius 43.2346 -0 0
rwrist -22.8802 0 0
rhand -30.6702 -24.6433 0.00130697
rfingers 7.12502 -0 0
rthumb -3.96461 -54.5857 0.00123651
229
root 8.96842 16.3915 -4.6498 9.36913 -2.35662 -2.48796
lfemur -41.9008 8.82385 -21.7281
ltibia 46.9164 -0 0
lfoot -8.37064 6.96307 -0.0688334
ltoes -0.755305 0 0
rfemur 5.06801 2.50205 23.1792
rtibia 25.0164 -0 0
rfoot 0.0889259 4.03976 0.171303
rtoes -15.2098 0 0
lowerback -6.25862 1.86246 0.167264
upperback -2.53672 2.44472 2.23106
thorax 0.803538 1.22917 2.37623
lowerneck -17.1545 -6.3149 -14.3781
upperneck 15.8034 -8.04611 15.2535
head 9.03514 -3.20741 6.61798
lclavicle -3.18629e-14 7.75585e-16 8.16188e-31
lhumerus -46.8519 -6.51965 90.2841
lradius 22.7947 -0 0
lwrist 0.0204787 0 0
lhand -8.59453 -22.538 0.0441603
lfingers 7.12502 -0 0
lthumb 17.3335 6.66321 0.0319414
rclavicle -3.18629e-14 7.75585e-16 8.16188e-31
rhumerus -44.7863 8.75393 -84.9185
rradius 43.1958 -0 0
rwrist -22.9079 0 0
rhand -30.6555 -24.6296 0.00125805
rfingers 7.12502 -0 0
rthumb -3.95043 -54.5724 0.00119022
230
root 8.98747 16.3857 -4.49716 9.41066 -2.53482 -2.50051
lfemur -42.1078 8.84546 -21.7821
ltibia 46.6406 -0 0
lfoot -8.27287 6.85104 -0.0659642
ltoes -0.707608 0 0
rfemur 5.57324 2.4833 23.0839
rtibia 24.9413 -0 0
rfoot 0.522646 4.10256 0.164141
rtoes -15.2326 0 0
lowerback -6.30905 1.87876 0.161132
upperback -2.54841 2.46624 2.20719
thorax 0.819406 1.23989 2.35777
lowerneck -17.2439 -6.2986 -14.3449
upperneck 15.8712 -8.02352 15.2326
head 9.06755 -3.19269 6.60886
lclavicle -3.21696e-14 1.19922e-15 7.82181e-31
lhumerus -46.8076 -6.41687 90.1519
lradius 22.5725 -0 0
lwrist -0.364086 0 0
lhand -8.44 -22.4926 0.0423194
lfingers 7.12502 -0 0
lthumb 17.4824 6.69736 0.03061
rclavicle -3.21696e-14 1.19922e-15 7.82181e-31
rhumerus -44.8848 8.72265 -85.068
rradius 43.157 -0 0
rwrist -22.9356 0 0
rhand -30.6408 -24.616 0.00120563
rfingers 7.12502 -0 0
rthumb -3.93625 -54.559 0.00114063
231
root 9.00653 16.3799 -4.34452 9.45225 -2.71301 -2.51319
lfemur -42.3148 8.86688 -21.8362
ltibia 46.3649 -0 0
lfoot -8.1751 6.73901 -0.0629039
ltoes -0.659911 0 0
rfemur 6.0785 2.4654 22.9884
rtibia 24.8663 -0 0
rfoot 0.956357 4.1653 0.156504
rtoes -15.2553 0 0
lowerback -6.35948 1.89507 0.154985
upperback -2.5601 2.48775 2.18331
thorax 0.835271 1.25061 2.3393
lowerneck -17.3333 -6.28225 -14.3117
upperneck 15.939 -8.00091 15.2117
head 9.09995 -3.17796 6.59975
lclavicle -3.24762e-14 1.62286e-15 7.45906e-31
lhumerus -46.7636 -6.314 90.0198
lradius 22.3504 -0 0
lwrist -0.748651 0 0
lhand -8.28548 -22.4471 0.0403559
lfingers 7.12502 -0 0
lthumb 17.6312 6.73151 0.0291899
rclavicle -3.24762e-14 1.62286e-15 7.45906e-31
rhumerus -44.9833 8.69112 -85.2174
rradius 43.1182 -0 0
rwrist -22.9633 0 0
rhand -30.6261 -24.6024 0.00114972
rfingers 7.12502 -0 0
rthumb -3.92206 -54.5457 0.00108773
232
root 9.02558 16.3741 -4.19188 9.49388 -2.8912 -2.52601
lfemur -42.5218 8.8881 -21.8904
ltibia 46.0891 -0 0
lfoot -8.07734 6.62698 -0.0596524
ltoes -0.612214 0 0
rfemur 6.58378 2.44834 22.8928
rtibia 24.7913 -0 0
rfoot 1.39006 4.22798 0.148393
rtoes -15.2781 0 0
lowerback -6.40991 1.91137 0.148823
upperback -2.57181 2.50925 2.15943
thorax 0.851132 1.26133 2.32084
lowerneck -17.4228 -6.26585 -14.2786
upperneck 16.0068 -7.97828 15.1909
head 9.13236 -3.16322 6.59065
lclavicle -3.27828e-14 2.0465e-15 7.07363e-31
lhumerus -46.7198 -6.21102 89.8878
lradius 22.1283 -0 0
lwrist -1.13322 0 0
lhand -8.13096 -22.4016 0.0382698
lfingers 7.12502 -0 0
lthumb 17.78 6.76566 0.027681
rclavicle -3.27828e-14 2.0465e-15 7.07363e-31
rhumerus -45.0816 8.65933 -85.3668
rradius 43.0795 -0 0
rwrist -22.9909 0 0
rhand -30.6114 -24.5887 0.00109031
rfingers 7.12502 -0 0
rthumb -3.90788 -54.5323 0.00103152
233
root 9.04463 16.3683 -4.03924 9.53555 -3.06937 -2.53896
lfemur -42.7288 8.90913 -21.9446
ltibia 45.8133 -0 0
lfoot -7.97959 6.51497 -0.0562098
ltoes -0.564516 0 0
rfemur 7.08908 2.43212 22.797
rtibia 24.7162 -0 0
rfoot 1.82375 4.29059 0.139807
rtoes -15.3008 0 0
lowerback -6.46034 1.92766 0.142648
upperback -2.58352 2.53075 2.13554
thorax 0.86699 1.27206 2.30238
lowerneck -17.5122 -6.2494 -14.2455
upperneck 16.0746 -7.95562 15.1701
head 9.16476 -3.14848 6.58156
lclavicle -3.30894e-14 2.47014e-15 6.66554e-31
lhumerus -46.6763 -6.10794 89.7559
lradius 21.9061 -0 0
lwrist -1.51778 0 0
lhand -7.97645 -22.3562 0.0360611
lfingers 7.12502 -0 0
lthumb 17.9289 6.7998 0.0260835
rclavicle -3.30894e-14 2.47014e-15 6.66554e-31
rhumerus -45.1799 8.62729 -85.5161
rradius 43.0407 -0 0
rwrist -23.0186 0 0
rhand -30.5967 -24.5751 0.0010274
rfingers 7.12502 -0 0
rthumb -3.8937 -54.519 0.000972012
234
root 9.06368 16.3626 -3.88661 9.57727 -3.24753 -2.55203
lfemur -42.9359 8.92996 -21.9989
ltibia 45.5376 -0 0
lfoot -7.88184 6.40296 -0.0525761
ltoes -0.516819 0 0
rfemur 7.59441 2.41675 22.7011
rtibia 24.6412 -0 0
rfoot 2.25744 4.35314 0.130747
rtoes -15.3236 0 0
lowerback -6.51078 1.94394 0.136457
upperback -2.59524 2.55225 2.11165
thorax 0.882845 1.28279 2.28393
lowerneck -17.6016 -6.2329 -14.2125
upperneck 16.1423 -7.93293 15.1494
head 9.19715 -3.13373 6.57247
lclavicle -3.33961e-14 2.89378e-15 6.23477e-31
lhumerus -46.633 -6.00477 89.6241
lradius 21.684 -0 0
lwrist -1.90235 0 0
lhand -7.82193 -22.3107 0.0337297
lfingers 7.12502 -0 0
lthumb 18.0777 6.83394 0.0243973
rclavicle -3.33961e-14 2.89378e-15 6.23477e-31
rhumerus -45.2781 8.595 -85.6653
rradius 43.0019 -0 0
rwrist -23.0463 0 0
rhand -30.5821 -24.5615 0.000961008
rfingers 7.12502 -0 0
rthumb -3.87951 -54.5056 0.000909195
